# xmcd
#
# Track frame offsets:
#	150
#	14440
#	32180
#	46380
#	62406
#	80315
#	95637
#	108983
#	122801
#	137602
#	154721
#	167994
#	181565
#	194869
#
# Disc length: 2795 seconds
# Revision: 0
# Processed by: cddbd v1.5.2PL0 Copyright (c) Steve Scherf et al.
# Submitted via: dBpowerAMP V12.0
#
DISCID=b80ae90e
DTITLE=Billie Holiday - The Best of Billie Holiday
DYEAR=2017
DGENRE=Blues
TTITLE0=As Time Goes By
TTITLE1=Autumn in New York
TTITLE2=Billie's Blues
TTITLE3=Blue Moon
TTITLE4=Comes Love
TTITLE5=Don't Explain
TTITLE6=East of the Sun
TTITLE7=Easy to Love
TTITLE8=Embraceable You
TTITLE9=Everything I Have Is Yours
TTITLE10=A Fine Romance
TTITLE11=Georgia on My Mind
TTITLE12=God Bless the Child
TTITLE13=I Can't Face the Music
EXTD=
EXTT0=
EXTT1=
EXTT2=
EXTT3=
EXTT4=
EXTT5=
EXTT6=
EXTT7=
EXTT8=
EXTT9=
EXTT10=
EXTT11=
EXTT12=
EXTT13=
PLAYORDER=
